<svg width="24" height="24" viewBox="0 0 24 24" fill="none" xmlns="http://www.w3.org/2000/svg">
<path d="M21 12C21 7.03125 16.9687 3 12 3C7.03125 3 3 7.03125 3 12C3 16.9687 7.03125 21 12 21C16.9687 21 21 16.9687 21 12Z" stroke="#003357" stroke-width="2" stroke-miterlimit="10"/>
<path d="M11.731 7.78407L12.0001 13.5005L12.2686 7.78407C12.2703 7.74753 12.2645 7.71103 12.2516 7.67681C12.2386 7.64258 12.2189 7.61136 12.1935 7.58503C12.1681 7.55871 12.1376 7.53784 12.1038 7.52371C12.0701 7.50957 12.0338 7.50246 11.9972 7.50282V7.50282C11.9611 7.50316 11.9254 7.51078 11.8923 7.52523C11.8591 7.53967 11.8292 7.56065 11.8044 7.5869C11.7795 7.61315 11.7602 7.64414 11.7476 7.67801C11.735 7.71189 11.7294 7.74796 11.731 7.78407V7.78407Z" stroke="#003357" stroke-width="2" stroke-linecap="round" stroke-linejoin="round"/>
<path d="M12.0625 17.3706C11.8647 17.3706 11.6714 17.312 11.5069 17.2021C11.3425 17.0922 11.2143 16.936 11.1386 16.7533C11.0629 16.5706 11.0431 16.3695 11.0817 16.1755C11.1203 15.9815 11.2155 15.8034 11.3554 15.6635C11.4952 15.5236 11.6734 15.4284 11.8674 15.3898C12.0614 15.3512 12.2625 15.371 12.4452 15.4467C12.6279 15.5224 12.7841 15.6506 12.894 15.815C13.0039 15.9795 13.0625 16.1728 13.0625 16.3706C13.0625 16.6358 12.9571 16.8902 12.7696 17.0777C12.5821 17.2652 12.3277 17.3706 12.0625 17.3706Z" fill="#003357"/>
</svg>
