<svg width="24" height="24" viewBox="0 0 24 24" fill="none" xmlns="http://www.w3.org/2000/svg">
<path d="M12 3.75C10.3683 3.75 8.77325 4.23385 7.41655 5.14038C6.05984 6.0469 5.00242 7.33537 4.378 8.84286C3.75357 10.3503 3.5902 12.0091 3.90853 13.6095C4.22685 15.2098 5.01259 16.6798 6.16637 17.8336C7.32016 18.9874 8.79016 19.7731 10.3905 20.0915C11.9908 20.4098 13.6496 20.2464 15.1571 19.622C16.6646 18.9976 17.9531 17.9402 18.8596 16.5834C19.7661 15.2267 20.25 13.6317 20.25 12C20.25 9.81196 19.3808 7.71354 17.8336 6.16637C16.2865 4.61919 14.188 3.75 12 3.75Z" stroke="#003357" stroke-width="2" stroke-miterlimit="10"/>
<path d="M9.375 9.48355C9.375 9.48355 9.41438 8.66324 10.2923 7.95683C10.8131 7.5373 11.4375 7.4159 12 7.40746C12.5123 7.4009 12.9698 7.48574 13.2436 7.61605C13.7123 7.83918 14.625 8.38387 14.625 9.54215C14.625 10.7609 13.8281 11.3145 12.9202 11.9234C12.0122 12.5323 11.7656 13.1932 11.7656 13.8762" stroke="#003357" stroke-width="2" stroke-miterlimit="10" stroke-linecap="round"/>
<path d="M11.7812 17.3754C12.3335 17.3754 12.7812 16.9277 12.7812 16.3754C12.7812 15.8231 12.3335 15.3754 11.7812 15.3754C11.229 15.3754 10.7812 15.8231 10.7812 16.3754C10.7812 16.9277 11.229 17.3754 11.7812 17.3754Z" fill="#003357"/>
</svg>
