<svg width="24" height="24" viewBox="0 0 24 24" fill="none" xmlns="http://www.w3.org/2000/svg">
<path d="M11.625 3C6.86203 3 3 6.86203 3 11.625C3 16.388 6.86203 20.25 11.625 20.25C16.388 20.25 20.25 16.388 20.25 11.625C20.25 6.86203 16.388 3 11.625 3Z" stroke="#003357" stroke-width="2" stroke-miterlimit="10"/>
<path d="M10.3125 10.3125H11.8125V15.75" stroke="#003357" stroke-width="2" stroke-linecap="round" stroke-linejoin="round"/>
<path d="M9.75 15.9375H13.875" stroke="#003357" stroke-width="2" stroke-miterlimit="10" stroke-linecap="round"/>
<path d="M11.7063 6.09375C11.4491 6.09375 11.1978 6.16999 10.984 6.31284C10.7702 6.45569 10.6036 6.65872 10.5052 6.89626C10.4068 7.13381 10.3811 7.39519 10.4312 7.64737C10.4814 7.89954 10.6052 8.13118 10.787 8.31299C10.9688 8.4948 11.2005 8.61861 11.4526 8.66877C11.7048 8.71893 11.9662 8.69319 12.2037 8.59479C12.4413 8.4964 12.6443 8.32977 12.7872 8.11599C12.93 7.90221 13.0062 7.65087 13.0062 7.39375C13.0062 7.04897 12.8693 6.71831 12.6255 6.47451C12.3817 6.23071 12.051 6.09375 11.7063 6.09375Z" fill="#003357"/>
</svg>
