<svg width="17" height="17" viewBox="0 0 17 17" fill="none" xmlns="http://www.w3.org/2000/svg">
<path d="M3.63084 15.2491H3.46895C3.24473 15.2491 3.0297 15.1616 2.87115 15.0059C2.71261 14.8502 2.62354 14.639 2.62354 14.4187V3.62372C2.62354 3.40349 2.71261 3.19228 2.87115 3.03655C3.0297 2.88082 3.24473 2.79333 3.46895 2.79333H9.45956C9.57064 2.79336 9.68063 2.81488 9.78324 2.85668C9.88584 2.89847 9.97906 2.95972 10.0576 3.03691L13.3665 6.28705C13.445 6.36419 13.5073 6.45577 13.5497 6.55655C13.5922 6.65733 13.614 6.76534 13.6139 6.8744V8.6983" stroke="#003357" stroke-width="1.5" stroke-linecap="round" stroke-linejoin="round"/>
<path d="M13.3389 6.91473H10.0418C9.8232 6.91473 9.61354 6.82789 9.45896 6.67331C9.30437 6.51873 9.21753 6.30907 9.21753 6.09045V2.79333" stroke="#003357" stroke-width="1.5" stroke-linecap="round" stroke-linejoin="round"/>
<path d="M6.62329 15.1575V11.0361" stroke="#003357" stroke-linecap="round" stroke-linejoin="round"/>
<path d="M6.62329 11.0361H7.03763C7.36555 11.0361 7.68004 11.1664 7.91191 11.3983C8.14378 11.6301 8.27405 11.9446 8.27405 12.2726C8.27405 12.6005 8.14378 12.915 7.91191 13.1468C7.68004 13.3787 7.36555 13.509 7.03763 13.509H6.62549" stroke="#003357" stroke-linecap="round" stroke-linejoin="round"/>
<path d="M10.106 15.1575C10.5432 15.1575 10.9625 14.9838 11.2717 14.6747C11.5808 14.3655 11.7545 13.9462 11.7545 13.509V12.6847C11.7545 12.2475 11.5808 11.8282 11.2717 11.519C10.9625 11.2098 10.5432 11.0361 10.106 11.0361V15.1575Z" stroke="#003357" stroke-linecap="round" stroke-linejoin="round"/>
<path d="M13.5864 15.1575V11.8604C13.5864 11.6418 13.6733 11.4321 13.8279 11.2776C13.9824 11.123 14.1921 11.0361 14.4107 11.0361H15.235" stroke="#003357" stroke-linecap="round" stroke-linejoin="round"/>
<path d="M13.5862 13.509H14.8226" stroke="#003357" stroke-linecap="round" stroke-linejoin="round"/>
</svg>
