<svg width="17" height="17" viewBox="0 0 17 17" fill="none" xmlns="http://www.w3.org/2000/svg">
<g clip-path="url(#clip0)">
<path d="M8.78286 4.29333C6.34724 4.29333 3.8488 5.70302 1.88192 8.5224C1.82578 8.60376 1.79502 8.69993 1.79351 8.79877C1.79201 8.89761 1.81984 8.99468 1.87349 9.07771C3.38474 11.4433 5.84974 13.2933 8.78286 13.2933C11.6841 13.2933 14.1997 11.4377 15.7138 9.06677C15.7662 8.98537 15.794 8.89061 15.794 8.7938C15.794 8.697 15.7662 8.60224 15.7138 8.52083C14.1963 6.17708 11.6622 4.29333 8.78286 4.29333Z" stroke="#003357" stroke-width="1.5" stroke-linecap="round" stroke-linejoin="round"/>
<path d="M8.79346 11.2932C10.1742 11.2932 11.2935 10.1739 11.2935 8.79321C11.2935 7.4125 10.1742 6.29321 8.79346 6.29321C7.41274 6.29321 6.29346 7.4125 6.29346 8.79321C6.29346 10.1739 7.41274 11.2932 8.79346 11.2932Z" stroke="#003357" stroke-width="1.5" stroke-miterlimit="10"/>
</g>
<defs>
<clipPath id="clip0">
<rect width="16" height="16" fill="white" transform="translate(0.793457 0.793335)"/>
</clipPath>
</defs>
</svg>
