<svg width="17" height="17" viewBox="0 0 17 17" fill="none" xmlns="http://www.w3.org/2000/svg">
<path d="M14.7085 8.79333C14.7085 5.48083 12.021 2.79333 8.7085 2.79333C5.396 2.79333 2.7085 5.48083 2.7085 8.79333C2.7085 12.1058 5.396 14.7933 8.7085 14.7933C12.021 14.7933 14.7085 12.1058 14.7085 8.79333Z" stroke="#003357" stroke-width="1.5" stroke-miterlimit="10"/>
<path d="M8.52924 5.98266L8.7086 9.29333L8.88765 5.98266C8.88876 5.9583 8.88488 5.93397 8.87627 5.91116C8.86765 5.88834 8.85447 5.86753 8.83754 5.84998C8.82061 5.83243 8.80027 5.81852 8.77778 5.8091C8.75529 5.79967 8.73111 5.79494 8.70673 5.79517C8.68263 5.7954 8.65883 5.80048 8.63674 5.81011C8.61465 5.81974 8.59473 5.83372 8.57816 5.85122C8.5616 5.86872 8.54873 5.88938 8.54032 5.91196C8.53191 5.93454 8.52814 5.95859 8.52924 5.98266Z" stroke="#003357" stroke-width="1.4999" stroke-linecap="round" stroke-linejoin="round"/>
<path d="M8.7085 12.7933C8.51072 12.7933 8.31738 12.7347 8.15293 12.6248C7.98848 12.5149 7.8603 12.3587 7.78462 12.176C7.70893 11.9933 7.68913 11.7922 7.72771 11.5982C7.7663 11.4043 7.86154 11.2261 8.00139 11.0862C8.14124 10.9464 8.31942 10.8511 8.51341 10.8126C8.70739 10.774 8.90845 10.7938 9.09118 10.8695C9.27391 10.9451 9.43008 11.0733 9.53997 11.2378C9.64985 11.4022 9.7085 11.5956 9.7085 11.7933C9.7085 12.0586 9.60314 12.3129 9.4156 12.5004C9.22807 12.688 8.97371 12.7933 8.7085 12.7933Z" fill="#003357"/>
</svg>
