<svg width="17" height="17" viewBox="0 0 17 17" fill="none" xmlns="http://www.w3.org/2000/svg">
<g clip-path="url(#clip0)">
<path d="M13.2797 11.1266C13.9428 10.5206 14.5245 9.81964 15.0053 9.06677C15.0577 8.98537 15.0856 8.89061 15.0856 8.7938C15.0856 8.697 15.0577 8.60224 15.0053 8.52083C13.4878 6.17708 10.9537 4.29333 8.07437 4.29333C7.68997 4.29333 7.30401 4.32845 6.91882 4.39867M9.08496 13.2179C8.75415 13.2675 8.41695 13.2933 8.07437 13.2933C5.14124 13.2933 2.67624 11.4433 1.16499 9.07771C1.11135 8.99468 1.08352 8.89761 1.08502 8.79877C1.08652 8.69993 1.11729 8.60376 1.17343 8.5224C1.7325 7.72101 2.33451 7.03352 2.96583 6.45992" stroke="#003357" stroke-width="1.5" stroke-linecap="round" stroke-linejoin="round"/>
<path d="M8.08479 5.79285C7.86008 5.79273 7.63607 5.81788 7.41698 5.86785C7.40591 5.87014 7.39568 5.8754 7.38736 5.88305C7.37905 5.89071 7.37296 5.90047 7.36976 5.91131C7.36655 5.92215 7.36634 5.93365 7.36915 5.9446C7.37197 5.95554 7.3777 5.96552 7.38573 5.97347L10.9042 9.49097C10.9121 9.49901 10.9221 9.50473 10.933 9.50755C10.944 9.51036 10.9555 9.51015 10.9663 9.50695C10.9772 9.50374 10.9869 9.49766 10.9946 9.48934C11.0022 9.48102 11.0075 9.47079 11.0098 9.45972C11.11 9.02036 11.1099 8.56407 11.0095 8.12475C10.9092 7.68543 10.7111 7.27436 10.4301 6.92208C10.1491 6.56979 9.79233 6.28534 9.3863 6.08984C8.98028 5.89435 8.53543 5.79284 8.08479 5.79285Z" fill="#003357"/>
<path d="M5.26549 8.09557C5.25754 8.08754 5.24756 8.08181 5.23661 8.07899C5.22567 8.07618 5.21416 8.07639 5.20332 8.07959C5.19249 8.0828 5.18272 8.08889 5.17507 8.0972C5.16741 8.10552 5.16216 8.11575 5.15986 8.12682C5.04653 8.62193 5.06076 9.1377 5.20122 9.62581C5.34168 10.1139 5.60376 10.5584 5.96291 10.9175C6.32206 11.2767 6.76651 11.5388 7.25462 11.6792C7.74272 11.8197 8.2585 11.8339 8.75361 11.7206C8.76468 11.7183 8.77491 11.713 8.78323 11.7054C8.79154 11.6977 8.79763 11.6879 8.80083 11.6771C8.80404 11.6663 8.80425 11.6548 8.80144 11.6438C8.79862 11.6329 8.79289 11.6229 8.78486 11.6149L5.26549 8.09557Z" fill="#003357"/>
<line x1="3.14519" y1="3.49025" x2="13.1012" y2="14.0319" stroke="#003357" stroke-width="1.5" stroke-linecap="round" stroke-linejoin="round"/>
</g>
<defs>
<clipPath id="clip0">
<rect width="16" height="16" fill="white" transform="translate(0.0849609 0.793335)"/>
</clipPath>
</defs>
</svg>
