<svg width="17" height="17" viewBox="0 0 17 17" fill="none" xmlns="http://www.w3.org/2000/svg">
<path d="M8.41699 3.29333C7.3292 3.29333 6.26583 3.6159 5.36136 4.22025C4.45689 4.8246 3.75194 5.68358 3.33566 6.68858C2.91938 7.69357 2.81046 8.79944 3.02268 9.86633C3.23489 10.9332 3.75872 11.9132 4.52791 12.6824C5.2971 13.4516 6.2771 13.9754 7.344 14.1877C8.41089 14.3999 9.51676 14.291 10.5218 13.8747C11.5267 13.4584 12.3857 12.7534 12.9901 11.849C13.5944 10.9445 13.917 9.88113 13.917 8.79333C13.917 7.33464 13.3375 5.9357 12.3061 4.90425C11.2746 3.8728 9.87569 3.29333 8.41699 3.29333Z" stroke="#003357" stroke-width="1.33333" stroke-miterlimit="10"/>
<path d="M6.66724 7.11562C6.66724 7.11562 6.69349 6.56875 7.2788 6.09781C7.62599 5.81812 8.04224 5.73719 8.41724 5.73156C8.7588 5.72719 9.0638 5.78375 9.2463 5.87062C9.5588 6.01937 10.1672 6.3825 10.1672 7.15468C10.1672 7.96718 9.63599 8.33625 9.03067 8.74218C8.42536 9.14812 8.26099 9.58875 8.26099 10.0441" stroke="#003357" stroke-width="1.25" stroke-miterlimit="10" stroke-linecap="round"/>
<path d="M8.29199 12.7936C8.77524 12.7936 9.16699 12.4018 9.16699 11.9186C9.16699 11.4353 8.77524 11.0436 8.29199 11.0436C7.80874 11.0436 7.41699 11.4353 7.41699 11.9186C7.41699 12.4018 7.80874 12.7936 8.29199 12.7936Z" fill="#003357"/>
</svg>
