<svg width="17" height="17" viewBox="0 0 17 17" fill="none" xmlns="http://www.w3.org/2000/svg">
<g clip-path="url(#clip0)">
<path d="M12.5842 6.29333C12.9157 6.29333 13.2337 6.42503 13.4681 6.65945C13.7025 6.89387 13.8342 7.21181 13.8342 7.54333V14.0433C13.8342 14.3749 13.7025 14.6928 13.4681 14.9272C13.2337 15.1616 12.9157 15.2933 12.5842 15.2933H5.08423C4.75271 15.2933 4.43477 15.1616 4.20035 14.9272C3.96592 14.6928 3.83423 14.3749 3.83423 14.0433V7.54333C3.83423 7.21181 3.96592 6.89387 4.20035 6.65945C4.43477 6.42503 4.75271 6.29333 5.08423 6.29333" stroke="#003357" stroke-width="1.5" stroke-linecap="round" stroke-linejoin="round"/>
<path d="M6.33398 9.29334L8.83398 11.7933L11.334 9.29334M8.83398 2.29333V11.2933" stroke="#003357" stroke-width="1.5" stroke-linecap="round" stroke-linejoin="round"/>
</g>
<defs>
<clipPath id="clip0">
<rect width="16" height="16" fill="white" transform="translate(0.833984 0.793335)"/>
</clipPath>
</defs>
</svg>
