<svg width="17" height="17" viewBox="0 0 17 17" fill="none" xmlns="http://www.w3.org/2000/svg">
<path d="M10.5427 5.35583C10.5427 5.35583 11.304 4.98083 8.54273 4.98083C7.55382 4.98083 6.58712 5.27408 5.76488 5.82349C4.94263 6.37289 4.30177 7.15379 3.92333 8.06742C3.54489 8.98105 3.44587 9.98638 3.6388 10.9563C3.83173 11.9262 4.30793 12.8171 5.00719 13.5164C5.70646 14.2156 6.59737 14.6918 7.56728 14.8848C8.53718 15.0777 9.54251 14.9787 10.4561 14.6002C11.3698 14.2218 12.1507 13.5809 12.7001 12.7587C13.2495 11.9364 13.5427 10.9697 13.5427 9.98083" stroke="#003357" stroke-width="1.5" stroke-miterlimit="10" stroke-linecap="round"/>
<path d="M8.54248 2.60583L11.0425 5.10583L8.54248 7.60583" stroke="#003357" stroke-width="1.5" stroke-linecap="round" stroke-linejoin="round"/>
</svg>
