<svg width="17" height="17" viewBox="0 0 17 17" fill="none" xmlns="http://www.w3.org/2000/svg">
<path d="M10.7915 2.79333H14.2915V6.29333M7.2915 9.79333L14.0415 3.04333M7.7915 4.79333H3.5415C3.20998 4.79333 2.89204 4.92503 2.65762 5.15945C2.4232 5.39387 2.2915 5.71181 2.2915 6.04333V13.5433C2.2915 13.8749 2.4232 14.1928 2.65762 14.4272C2.89204 14.6616 3.20998 14.7933 3.5415 14.7933H11.0415C11.2057 14.7933 11.3682 14.761 11.5199 14.6982C11.6715 14.6354 11.8093 14.5433 11.9254 14.4272C12.0415 14.3111 12.1335 14.1733 12.1964 14.0217C12.2592 13.87 12.2915 13.7075 12.2915 13.5433V8.79333" stroke="#003357" stroke-width="1.5" stroke-linecap="round" stroke-linejoin="round"/>
</svg>
