<svg width="16" height="17" viewBox="0 0 16 17" fill="none" xmlns="http://www.w3.org/2000/svg">
<path d="M7.75 2.79333C4.57469 2.79333 2 5.36802 2 8.54333C2 11.7186 4.57469 14.2933 7.75 14.2933C10.9253 14.2933 13.5 11.7186 13.5 8.54333C13.5 5.36802 10.9253 2.79333 7.75 2.79333Z" stroke="#003357" stroke-width="1.5" stroke-miterlimit="10"/>
<path d="M7 7.79333H8V11.2933" stroke="#003357" stroke-width="1.25" stroke-linecap="round" stroke-linejoin="round"/>
<path d="M6 11.2933H10" stroke="#003357" stroke-width="1.25" stroke-miterlimit="10" stroke-linecap="round"/>
<path d="M7.875 4.79333C7.70194 4.79333 7.53277 4.84465 7.38888 4.9408C7.24498 5.03695 7.13283 5.1736 7.06661 5.33349C7.00038 5.49337 6.98305 5.66931 7.01681 5.83904C7.05058 6.00877 7.13391 6.16468 7.25628 6.28705C7.37865 6.40942 7.53456 6.49276 7.7043 6.52652C7.87403 6.56028 8.04996 6.54296 8.20985 6.47673C8.36973 6.4105 8.50639 6.29835 8.60254 6.15446C8.69868 6.01057 8.75 5.84139 8.75 5.66833C8.75 5.43627 8.65781 5.21371 8.49372 5.04962C8.32962 4.88552 8.10706 4.79333 7.875 4.79333Z" fill="#003357"/>
</svg>
